<svg width="0" height="0" class="hidden">
  <symbol xmlns="http://www.w3.org/2000/svg" viewBox="0 0 64 64" id="facebook-1">
    <title>Facebook</title>
    <desc>A line styled icon from Orion Icon Library.</desc>
    <path data-name="layer1"
    d="M56.375 2H7.625A5.642 5.642 0 0 0 2 7.625v48.75A5.642 5.642 0 0 0 7.625 62h26.25V37.625h-6.563V28.25h6.563v-4.687c.152-5.256 1.512-9.932 10.424-10.312h7.389v9.293h-6.247a2.953 2.953 0 0 0-3.129 2.895v2.811h9.375l-1.6 9.375h-7.775V62h14.063A5.642 5.642 0 0 0 62 56.375V7.625A5.642 5.642 0 0 0 56.375 2z"
    fill="none" stroke="#9e9c9c" stroke-linecap="round" stroke-miterlimit="10"
    stroke-width="3" stroke-linejoin="round" style="stroke:var(--layer1, #9e9c9c)"></path>
  </symbol>
  <symbol xmlns="http://www.w3.org/2000/svg" viewBox="0 0 64 64" id="instagram-1">
    <title>Instagram Camera</title>
    <desc>A line styled icon from Orion Icon Library.</desc>
    <circle data-name="layer1"
    cx="51" cy="15" r="3" fill="none" stroke="#9e9c9c" stroke-miterlimit="10"
    stroke-width="3" stroke-linejoin="round" stroke-linecap="round" style="stroke:var(--layer2, #9e9c9c)"></circle>
    <rect data-name="layer3" x="2" y="4" width="60" height="56" rx="4"
    ry="4" fill="none" stroke="#9e9c9c" stroke-miterlimit="10" stroke-width="3"
    stroke-linejoin="round" stroke-linecap="round" style="stroke:var(--layer2, #9e9c9c)"></rect>
    <path data-name="layer2" fill="none" stroke="#9e9c9c" stroke-miterlimit="10"
    stroke-width="3" d="M2 24h18.5M2 40h18.5M62 24H43.5M62 40H43.5" stroke-linejoin="round"
    stroke-linecap="round" style="stroke:var(--layer2, #9e9c9c)"></path>
    <circle data-name="layer1" cx="32" cy="32" r="14" fill="none" stroke="#9e9c9c"
    stroke-miterlimit="10" stroke-width="3" stroke-linejoin="round" stroke-linecap="round"
    style="stroke:var(--layer2, #9e9c9c)"></circle>
    <circle data-name="layer1" cx="32" cy="32" r="8" fill="none"
    stroke="#9e9c9c" stroke-miterlimit="10" stroke-width="3" stroke-linejoin="round"
    stroke-linecap="round" style="stroke:var(--layer2, #9e9c9c)"></circle>
  </symbol>
  <symbol xmlns="http://www.w3.org/2000/svg" viewBox="0 0 64 64" id="info-1">
    <title>Info Help</title>
    <desc>A line styled icon from Orion Icon Library.</desc>
    <circle data-name="layer2"
    cx="32" cy="32" r="30" fill="none" stroke="#9e9c9c" stroke-miterlimit="10"
    stroke-width="3" stroke-linejoin="round" stroke-linecap="round" style="stroke:var(--layer1, #9e9c9c)"></circle>
    <path data-name="layer1" fill="none" stroke="#9e9c9c" stroke-miterlimit="10"
    stroke-width="3" d="M28 26h4v22m-4 .008h8" stroke-linejoin="round" stroke-linecap="round"
    style="stroke:var(--layer1, #9e9c9c)"></path>
    <circle data-name="layer1" cx="31" cy="19" r="2" fill="none" stroke="#9e9c9c"
    stroke-miterlimit="10" stroke-width="3" stroke-linejoin="round" stroke-linecap="round"
    style="stroke:var(--layer1, #9e9c9c)"></circle>
  </symbol>
  <symbol xmlns="http://www.w3.org/2000/svg" viewBox="0 0 64 64" id="home-1">
    <title>House</title>
    <desc>A line styled icon from Orion Icon Library.</desc>
    <path data-name="layer1"
    d="M54 26.267l7.555 7.3a.25.25 0 0 1-.174.43H54V62H40V44H24v18H10V34H2.618a.25.25 0 0 1-.174-.43L32 5l13 12.567V12h9z"
    fill="none" stroke="#9e9c9c" stroke-linecap="round" stroke-miterlimit="10"
    stroke-width="3" stroke-linejoin="round" style="stroke:var(--layer1, #9e9c9c)"></path>
  </symbol>
</svg>